{
  "accessors": [
    {
      "bufferView": 2,
      "componentType": 5126,
      "count": 53965,
      "max": [
        91.0312728881836,
        93.71588897705078,
        6.146978855133057
      ],
      "min": [
        -91.03112030029297,
        -93.716064453125,
        -8.525677680969238
      ],
      "type": "VEC3"
    },
    {
      "bufferView": 2,
      "byteOffset": 647580,
      "componentType": 5126,
      "count": 53965,
      "max": [
        0.48293226957321167,
        0.4433400332927704,
        0.9999992847442627
      ],
      "min": [
        -0.4837789833545685,
        -0.43759509921073914,
        0.8526830077171326
      ],
      "type": "VEC3"
    },
    {
      "bufferView": 1,
      "componentType": 5126,
      "count": 53965,
      "max": [
        0.999998152256012,
        1.000001311302185
      ],
      "min": [
        0.0,
        0.0
      ],
      "type": "VEC2"
    },
    {
      "bufferView": 0,
      "componentType": 5125,
      "count": 321000,
      "type": "SCALAR"
    }
  ],
  "asset": {
    "extras": {
      "author": "Sahra Studios (https://sketchfab.com/sahrastudios)",
      "license": "CC-BY-4.0 (http://creativecommons.org/licenses/by/4.0/)",
      "source": "https://sketchfab.com/3d-models/sea-wave-deniz-dalgas-d7788fcb55c64c7d9733fa44607aab93",
      "title": "Sea Wave- Deniz dalgası"
    },
    "generator": "Sketchfab-12.68.0",
    "version": "2.0"
  },
  "bufferViews": [
    {
      "buffer": 0,
      "byteLength": 1284000,
      "name": "floatBufferViews",
      "target": 34963
    },
    {
      "buffer": 0,
      "byteLength": 431720,
      "byteOffset": 1284000,
      "byteStride": 8,
      "name": "floatBufferViews",
      "target": 34962
    },
    {
      "buffer": 0,
      "byteLength": 1295160,
      "byteOffset": 1715720,
      "byteStride": 12,
      "name": "floatBufferViews",
      "target": 34962
    }
  ],
  "buffers": [
    {
      "byteLength": 3010880,
      "uri": "scene.bin"
    }
  ],
  "images": [
    {
      "uri": "textures/02_-_Default_baseColor.jpeg"
    }
  ],
  "materials": [
    {
      "alphaMode": "BLEND",
      "doubleSided": true,
      "emissiveFactor": [
        0.0313726,
        0.0313726,
        0.0313726
      ],
      "name": "02_-_Default",
      "pbrMetallicRoughness": {
        "baseColorFactor": [
          1.0,
          1.0,
          1.0,
          0.8980564024390245
        ],
        "baseColorTexture": {
          "index": 0
        },
        "metallicFactor": 0.0,
        "roughnessFactor": 0.6
      }
    }
  ],
  "meshes": [
    {
      "name": "Plane001_02 - Default_0",
      "primitives": [
        {
          "attributes": {
            "NORMAL": 1,
            "POSITION": 0,
            "TEXCOORD_0": 2
          },
          "indices": 3,
          "material": 0,
          "mode": 4
        }
      ]
    }
  ],
  "nodes": [
    {
      "children": [
        1
      ],
      "matrix": [
        0.15628482401371002,
        0.0,
        0.0,
        0.0,
        0.0,
        3.470220200390229e-17,
        -0.15628482401371002,
        0.0,
        0.0,
        0.15628482401371002,
        3.470220200390229e-17,
        0.0,
        0.0,
        0.0,
        0.0,
        1.0
      ],
      "name": "Sketchfab_model"
    },
    {
      "children": [
        2
      ],
      "matrix": [
        1.0,
        0.0,
        0.0,
        0.0,
        0.0,
        0.0,
        1.0,
        0.0,
        0.0,
        -1.0,
        0.0,
        0.0,
        0.0,
        0.0,
        0.0,
        1.0
      ],
      "name": "2959f68ec16945c386186d2df75e9287.fbx"
    },
    {
      "children": [
        3
      ],
      "name": "RootNode"
    },
    {
      "children": [
        4
      ],
      "matrix": [
        1.0,
        0.0,
        0.0,
        0.0,
        0.0,
        2.220446049250313e-16,
        -1.0,
        0.0,
        0.0,
        1.0,
        2.220446049250313e-16,
        0.0,
        -16.49608612060547,
        0.918792724609375,
        14.021320343017578,
        1.0
      ],
      "name": "Plane001"
    },
    {
      "mesh": 0,
      "name": "Plane001_02 - Default_0"
    }
  ],
  "samplers": [
    {
      "magFilter": 9729,
      "minFilter": 9987,
      "wrapS": 10497,
      "wrapT": 10497
    }
  ],
  "scene": 0,
  "scenes": [
    {
      "name": "Sketchfab_Scene",
      "nodes": [
        0
      ]
    }
  ],
  "textures": [
    {
      "sampler": 0,
      "source": 0
    }
  ]
}
